<svg width="20" height="20" viewBox="0 0 20 20" xmlns="http://www.w3.org/2000/svg">
<path d="M19.4141 11.2643H18.7766L16.7349 6.3259C17.0208 6.28699 17.2413 6.04254 17.2413 5.74598C17.2413 5.42238 16.979 5.16004 16.6554 5.16004H11.6177C11.3769 4.49125 10.7363 4.01172 9.98559 4.01172C9.23488 4.01172 8.59422 4.49129 8.3534 5.16004H3.34465C3.02105 5.16004 2.75871 5.42238 2.75871 5.74598C2.75871 6.04254 2.97926 6.28699 3.26512 6.3259L1.22344 11.2643H0.585938C0.262344 11.2643 0 11.5266 0 11.8502C0 14.1324 1.85668 15.9891 4.13883 15.9891C6.42098 15.9891 8.27766 14.1324 8.27766 11.8502C8.27766 11.5266 8.01531 11.2643 7.69172 11.2643H7.05418L5.01504 6.33191H8.3534C8.59422 7.0007 9.23484 7.48023 9.98559 7.48023C10.7363 7.48023 11.3769 7.0007 11.6177 6.33191H14.985L12.9459 11.2643H12.3083C11.9847 11.2643 11.7224 11.5266 11.7224 11.8502C11.7224 14.1324 13.5791 15.9891 15.8612 15.9891C18.1434 15.9891 20 14.1324 20 11.8502C20 11.5266 19.7377 11.2643 19.4141 11.2643ZM4.13883 14.8172C2.70332 14.8172 1.5027 13.7925 1.22996 12.4362H7.0477C6.77496 13.7925 5.57434 14.8172 4.13883 14.8172ZM5.78613 11.2643H2.49152L4.13883 7.27977L5.78613 11.2643ZM9.98555 6.30836C9.67543 6.30836 9.42316 6.05609 9.42316 5.74598C9.42316 5.43586 9.67543 5.18359 9.98555 5.18359C10.2956 5.18359 10.5479 5.43586 10.5479 5.74598C10.5479 6.05609 10.2957 6.30836 9.98555 6.30836ZM15.8612 7.27977L17.5085 11.2643H14.2139L15.8612 7.27977ZM15.8612 14.8172C14.4257 14.8172 13.225 13.7925 12.9523 12.4362H18.77C18.4973 13.7925 17.2966 14.8172 15.8612 14.8172Z" />
<path fill-rule="evenodd" clip-rule="evenodd" d="M18.77 12.4362C18.613 13.2171 18.1484 13.8881 17.5085 14.3168C17.4207 14.3756 17.3297 14.4298 17.2357 14.4792C16.84 14.6869 16.3919 14.8079 15.9168 14.8167C15.8983 14.817 15.8798 14.8172 15.8612 14.8172V14.8172C15.8426 14.8172 15.8241 14.817 15.8056 14.8167C15.3305 14.8079 14.8824 14.6869 14.4866 14.4792C14.3927 14.4298 14.3016 14.3756 14.2139 14.3168C13.5739 13.8881 13.1093 13.2171 12.9523 12.4362H18.77ZM18.7766 11.2643H19.4141C19.7377 11.2643 20 11.5266 20 11.8502C20 12.1298 19.9721 12.403 19.919 12.6672C19.825 13.1351 19.6518 13.5747 19.4141 13.9714C19.2358 14.2689 19.0212 14.5422 18.7766 14.7853C18.7744 14.7874 18.7722 14.7896 18.77 14.7917C18.6549 14.9057 18.533 15.0129 18.4052 15.1128C18.3379 15.1654 18.269 15.2159 18.1985 15.2643C17.533 15.7214 16.7278 15.9891 15.8612 15.9891V15.9891C14.9946 15.9891 14.1894 15.7213 13.5239 15.2643C13.4534 15.2159 13.3845 15.1653 13.3172 15.1128C13.1894 15.0129 13.0675 14.9056 12.9523 14.7917C12.9502 14.7896 12.948 14.7874 12.9459 14.7853C12.7012 14.5422 12.4866 14.2689 12.3083 13.9714C12.2303 13.8412 12.1593 13.7065 12.0957 13.5677C11.9655 13.2832 11.8665 12.9816 11.8033 12.6672C11.7502 12.403 11.7224 12.1298 11.7224 11.8502C11.7224 11.5494 11.9491 11.3015 12.2411 11.2681C12.2631 11.2656 12.2856 11.2643 12.3083 11.2643H12.9459L14.985 6.33191H11.6177L11.6166 6.33513C11.3968 6.9417 10.8479 7.39192 10.1867 7.46864C10.1207 7.4763 10.0536 7.48023 9.98559 7.48023V7.48023C9.92794 7.48023 9.8709 7.4774 9.81468 7.47188C9.13994 7.40557 8.57764 6.95089 8.35454 6.33507L8.3534 6.33191H5.01504L7.05418 11.2643H7.69172C7.71447 11.2643 7.73691 11.2656 7.75898 11.2681C8.0509 11.3015 8.27766 11.5494 8.27766 11.8502C8.27766 12.1298 8.24979 12.403 8.19669 12.6672C8.13349 12.9816 8.03455 13.2832 7.90431 13.5677C7.84074 13.7065 7.7697 13.8412 7.69172 13.9714C7.51344 14.2689 7.29887 14.5422 7.05418 14.7853C7.05202 14.7874 7.04986 14.7896 7.0477 14.7917C6.9325 14.9056 6.81067 15.0129 6.68284 15.1128C6.61557 15.1653 6.54665 15.2159 6.47615 15.2643C5.81063 15.7214 5.0054 15.9891 4.13883 15.9891C3.27225 15.9891 2.46702 15.7214 1.8015 15.2643C1.73101 15.2159 1.66208 15.1653 1.59482 15.1128C1.46699 15.0129 1.34516 14.9056 1.22996 14.7917C1.22778 14.7896 1.22561 14.7874 1.22344 14.7853C0.978759 14.5422 0.764205 14.2688 0.585938 13.9714C0.348209 13.5747 0.175013 13.1351 0.0809684 12.6672C0.0278667 12.403 0 12.1298 0 11.8502C0 11.5266 0.262344 11.2643 0.585938 11.2643H1.22344L3.26512 6.3259C3.163 6.312 3.06922 6.27187 2.99085 6.21251C2.84983 6.10569 2.75871 5.9366 2.75871 5.74598C2.75871 5.42238 3.02105 5.16004 3.34465 5.16004H8.3534L8.35454 5.15689C8.38642 5.0689 8.42522 4.9842 8.47029 4.90345C8.76692 4.372 9.33494 4.01173 9.98559 4.01172V4.01172C10.6299 4.01172 11.1931 4.36493 11.492 4.88786C11.5409 4.97328 11.5827 5.06322 11.6166 5.15689L11.6177 5.16004H16.6554C16.979 5.16004 17.2413 5.42238 17.2413 5.74598C17.2413 5.93659 17.1502 6.10568 17.0092 6.2125C16.9309 6.27187 16.8371 6.312 16.7349 6.3259L18.7766 11.2643ZM17.5085 11.2643L15.8612 7.27977L14.2139 11.2643H17.5085ZM2.49152 11.2643H5.78613L4.13883 7.27977L2.49152 11.2643ZM1.22996 12.4362C1.38699 13.2171 1.8516 13.8881 2.49152 14.3168C2.57926 14.3756 2.67029 14.4298 2.76428 14.4792C3.16 14.6869 3.60811 14.8079 4.08315 14.8167C4.10167 14.817 4.12023 14.8172 4.13883 14.8172C4.15741 14.8172 4.17595 14.817 4.19445 14.8167C4.66951 14.8079 5.11764 14.6869 5.51338 14.4792C5.60736 14.4298 5.6984 14.3756 5.78613 14.3168C6.42606 13.8881 6.89067 13.2171 7.0477 12.4362H1.22996ZM9.45696 5.9381C9.53563 6.15389 9.74287 6.30836 9.98555 6.30836V6.30836C10.2282 6.30834 10.4355 6.15389 10.5141 5.93813L10.5153 5.93494C10.5364 5.87586 10.5479 5.81224 10.5479 5.74598C10.5479 5.67972 10.5364 5.6161 10.5153 5.55702L10.5141 5.55387C10.4355 5.33808 10.2282 5.18361 9.98555 5.18359V5.18359C9.74287 5.18359 9.53563 5.33807 9.45696 5.55385L9.45581 5.55702C9.43468 5.6161 9.42316 5.67972 9.42316 5.74598C9.42316 5.81224 9.43468 5.87586 9.45582 5.93495L9.45696 5.9381Z" />
</svg>
