<svg width="16" height="17" viewBox="0 0 16 17" xmlns="http://www.w3.org/2000/svg">
<path d="M10.9693 13.3376H5.02783C5.1731 13.6872 5.25347 14.0703 5.25347 14.4718C5.25347 14.8733 5.1731 15.2564 5.02783 15.606H10.9693C10.8241 15.2564 10.7437 14.8733 10.7437 14.4718C10.7437 14.0703 10.8241 13.6872 10.9693 13.3376Z" />
<path d="M13.8333 11.5091L12.6844 0.5H9.57279V1.43744H11.8397L12.9022 11.6187C13.1596 11.5456 13.4311 11.5064 13.7115 11.5064C13.7524 11.5064 13.7929 11.5074 13.8333 11.5091Z" />
<path d="M15.7384 14.4722C15.7384 13.3539 14.8286 12.4441 13.7103 12.4441C12.592 12.4441 11.6822 13.3539 11.6822 14.4722C11.6822 15.5905 12.592 16.5002 13.7103 16.5002C14.8286 16.5002 15.7384 15.5905 15.7384 14.4722Z" />
<path d="M7.99978 8.08976C8.73973 8.08976 9.45288 8.4013 9.95638 8.94445L10.6439 8.30715C9.96356 7.57323 8.99981 7.15232 7.99978 7.15232C6.99975 7.15232 6.03599 7.57323 5.35569 8.30715L6.04318 8.94445C6.54668 8.40126 7.25982 8.08976 7.99978 8.08976Z" />
<path d="M6.50976 9.74643L7.28499 10.2735C7.4462 10.0364 7.71319 9.89486 7.9992 9.89486C8.28521 9.89486 8.55219 10.0364 8.7134 10.2735L9.48864 9.74643C9.15275 9.25237 8.59594 8.95742 7.9992 8.95742C7.40245 8.95742 6.84565 9.2524 6.50976 9.74643Z" />
<path d="M4.31793 14.4722C4.31793 13.3539 3.40814 12.4441 2.28984 12.4441C1.17154 12.4441 0.261719 13.3539 0.261719 14.4722C0.261719 15.5905 1.1715 16.5002 2.28981 16.5002C3.40811 16.5002 4.31793 15.5905 4.31793 14.4722Z" />
</svg>
